<svg width="426" height="74" viewBox="0 0 426 74" fill="none" xmlns="http://www.w3.org/2000/svg">
  <rect width="74" height="74" rx="18" fill="#0B0D14"/>
  <rect x="4" y="4" width="66" height="66" rx="14" stroke="url(#g1)" stroke-opacity="0.5"/>
  <path d="M20 18H54V30H42V56H32V30H20V18Z" fill="white"/>
  <path d="M17 40.5C17 30.835 24.835 23 34.5 23H50V35H34.5C31.462 35 29 37.462 29 40.5V41C29 44.038 31.462 46.5 34.5 46.5H43V58.5H34.5C24.835 58.5 17 50.665 17 41V40.5Z" fill="url(#g2)"/>
  <path d="M105.264 57V19.744H91.344V10.64H129.648V19.744H115.728V57H105.264ZM153.265 57.816C149.345 57.816 145.953 57 143.089 55.368C140.257 53.736 138.065 51.448 136.513 48.504C134.993 45.56 134.233 42.152 134.233 38.28C134.233 34.408 134.993 31 136.513 28.056C138.065 25.112 140.257 22.824 143.089 21.192C145.953 19.56 149.345 18.744 153.265 18.744C157.153 18.744 160.513 19.56 163.345 21.192C166.177 22.824 168.353 25.112 169.873 28.056C171.425 31 172.201 34.408 172.201 38.28C172.201 42.152 171.425 45.56 169.873 48.504C168.353 51.448 166.177 53.736 163.345 55.368C160.513 57 157.153 57.816 153.265 57.816ZM153.265 49.608C156.001 49.608 158.193 48.68 159.841 46.824C161.521 44.968 162.361 42.12 162.361 38.28C162.361 34.44 161.521 31.592 159.841 29.736C158.193 27.88 156.001 26.952 153.265 26.952C150.465 26.952 148.225 27.88 146.545 29.736C144.897 31.592 144.073 34.44 144.073 38.28C144.073 42.12 144.897 44.968 146.545 46.824C148.225 48.68 150.465 49.608 153.265 49.608ZM195.667 57.816C191.715 57.816 188.307 57 185.443 55.368C182.611 53.736 180.435 51.464 178.915 48.552C177.427 45.608 176.683 42.184 176.683 38.28C176.683 34.376 177.443 30.968 178.963 28.056C180.515 25.112 182.707 22.824 185.539 21.192C188.403 19.56 191.747 18.744 195.571 18.744C198.227 18.744 200.675 19.104 202.915 19.824C205.155 20.544 207.027 21.592 208.531 22.968L205.843 29.688C204.211 28.408 202.531 27.512 200.803 27C199.107 26.488 197.443 26.232 195.811 26.232C192.723 26.232 190.339 27.176 188.659 29.064C186.979 30.952 186.139 33.976 186.139 38.136C186.139 42.296 186.979 45.352 188.659 47.304C190.339 49.224 192.723 50.184 195.811 50.184C197.443 50.184 199.107 49.928 200.803 49.416C202.531 48.904 204.211 48.008 205.843 46.728L208.531 53.448C207.027 54.824 205.139 55.872 202.867 56.592C200.627 57.408 198.227 57.816 195.667 57.816ZM214.126 57V10.64H223.71V57H214.126ZM233.934 57V19.56H243.278V57H233.934ZM233.31 14.064V4.816H243.902V14.064H233.31ZM252.79 57V19.56H261.942V25.368C262.918 23.384 264.438 21.864 266.502 20.808C268.598 19.752 270.95 19.224 273.558 19.224C277.67 19.224 280.726 20.36 282.726 22.632C284.758 24.872 285.774 28.28 285.774 32.856V57H276.43V33.288C276.43 30.68 275.902 28.824 274.846 27.72C273.822 26.584 272.254 26.016 270.142 26.016C267.534 26.016 265.454 26.824 263.902 28.44C262.35 30.056 261.574 32.216 261.574 34.92V57H252.79ZM310.829 57.816C304.605 57.816 299.757 56.136 296.285 52.776C292.813 49.416 291.077 44.632 291.077 38.424C291.077 34.52 291.829 31.112 293.333 28.2C294.885 25.256 297.029 22.952 299.765 21.288C302.533 19.592 305.757 18.744 309.437 18.744C314.653 18.744 318.765 20.344 321.773 23.544C324.781 26.712 326.285 31.08 326.285 36.648V39.432H300.133C300.549 46.264 304.053 49.68 310.645 49.68C312.661 49.68 314.661 49.392 316.645 48.816C318.661 48.208 320.565 47.248 322.357 45.936L324.997 52.416C323.109 53.888 320.789 55.032 318.037 55.848C315.285 57.456 312.885 57.816 310.829 57.816ZM309.485 25.608C306.781 25.608 304.605 26.408 302.957 28.008C301.341 29.608 300.397 31.784 300.125 34.536H317.853C317.661 31.656 316.821 29.448 315.333 27.912C313.845 26.376 311.893 25.608 309.485 25.608ZM350.602 57.816C344.378 57.816 339.53 56.136 336.058 52.776C332.586 49.416 330.85 44.632 330.85 38.424C330.85 34.52 331.602 31.112 333.106 28.2C334.658 25.256 336.802 22.952 339.538 21.288C342.306 19.592 345.53 18.744 349.21 18.744C354.426 18.744 358.538 20.344 361.546 23.544C364.554 26.712 366.058 31.08 366.058 36.648V39.432H339.906C340.322 46.264 343.826 49.68 350.418 49.68C352.434 49.68 354.434 49.392 356.418 48.816C358.434 48.208 360.338 47.248 362.13 45.936L364.77 52.416C362.882 53.888 360.562 55.032 357.81 55.848C355.058 57.456 352.658 57.816 350.602 57.816ZM349.258 25.608C346.554 25.608 344.378 26.408 342.73 28.008C341.114 29.608 340.17 31.784 339.898 34.536H357.626C357.434 31.656 356.594 29.448 355.106 27.912C353.618 26.376 351.666 25.608 349.258 25.608ZM373.058 57V19.56H382.162V26.088C383.01 23.912 384.386 22.264 386.29 21.144C388.226 20.024 390.466 19.368 393.01 19.176L395.89 18.984L396.466 27.24L391.09 27.768C385.17 28.344 382.21 31.432 382.21 37.032V57H373.058Z" fill="white"/>
  <defs>
    <linearGradient id="g1" x1="7" y1="7" x2="67" y2="68" gradientUnits="userSpaceOnUse">
      <stop stop-color="#8B5CF6"/>
      <stop offset="1" stop-color="#38BDF8"/>
    </linearGradient>
    <linearGradient id="g2" x1="17" y1="23" x2="50" y2="58.5" gradientUnits="userSpaceOnUse">
      <stop stop-color="#8B5CF6"/>
      <stop offset="1" stop-color="#22C55E"/>
    </linearGradient>
  </defs>
</svg>
